<?xml version="1.0" encoding="UTF-8"?>
<svg version="1.1" xmlns="http://www.w3.org/2000/svg" width="512" height="512">
<path d="M0 0 C0.87529358 0.00021149 1.75058716 0.00042297 2.65240479 0.00064087 C17.30973543 0.03585638 31.29592791 1.06661815 45.625 4.375 C46.43437012 4.55691895 47.24374023 4.73883789 48.07763672 4.92626953 C88.26433443 14.24625186 128.56570501 38.23306859 154.625 70.375 C155.30433594 71.16648437 155.98367188 71.95796875 156.68359375 72.7734375 C191.74107071 114.21052465 207.31194137 168.39899361 202.9375 222.125 C199.51129881 258.64843452 186.24730406 292.72619285 164.96191406 322.46313477 C163.13838868 325.07088263 161.3875604 327.72578455 159.625 330.375 C160.36768222 331.11399505 161.11036444 331.85299009 161.87555218 332.61437893 C179.95639887 350.60637908 198.0256683 368.60994228 216.08289623 386.62564754 C224.815546 395.33768292 233.55190212 404.04593963 242.29711914 412.74536133 C249.92052423 420.32886461 257.53684289 427.91940192 265.14477903 435.51842505 C269.1723761 439.54081313 273.20340387 443.55962064 277.2429409 447.57002068 C281.04776487 451.3476231 284.84301721 455.13458603 288.63125229 458.92882156 C290.0205034 460.31697547 291.41316619 461.70172503 292.80953789 463.08271599 C308.58698034 478.69490484 308.58698034 478.69490484 310.25390625 487.81640625 C310.11401834 494.39113787 309.92949927 500.1285189 305.625 505.375 C300.22805888 510.32672062 295.89123736 512.52284613 288.5 512.75 C287.42492187 512.79898438 286.34984375 512.84796875 285.2421875 512.8984375 C273.75146457 511.2356331 266.03880983 501.32918316 258.29272461 493.49682617 C256.86370367 492.06667573 255.43379895 490.6374079 254.00308228 489.20895386 C250.13729425 485.34430987 246.28393304 481.46748912 242.43273616 477.58831191 C238.40005481 473.53056537 234.35598501 469.48420106 230.31312561 465.43659973 C222.66614801 457.77720743 215.02942115 450.10767916 207.39635235 442.43442851 C198.70290576 433.69621748 189.99805021 424.96940983 181.29223239 416.24352682 C163.3904592 398.2999834 145.50301323 380.34221451 127.625 362.375 C126.17678694 363.33691521 124.72904092 364.29953359 123.28149414 365.26245117 C122.47523087 365.7984343 121.66896759 366.33441742 120.83827209 366.88664246 C118.53790315 368.43356996 116.29671846 370.04681206 114.0625 371.6875 C70.81326791 402.01552189 15.60927643 412.20521419 -36.0234375 403.4453125 C-72.12501233 396.84212865 -111.13172263 380.10269476 -136.77734375 353.0078125 C-138.51304995 351.23391228 -140.35138235 349.6601626 -142.25 348.0625 C-177.13581341 317.62878088 -198.05448722 268.78591117 -202.375 223.375 C-202.52322813 220.44356858 -202.5612858 217.51688721 -202.578125 214.58203125 C-202.58518463 213.76211197 -202.59224426 212.94219269 -202.59951782 212.09742737 C-202.90006701 166.92616582 -193.80707478 123.49216628 -166.375 86.375 C-165.60800781 85.32570313 -164.84101563 84.27640625 -164.05078125 83.1953125 C-158.71736814 76.02019856 -152.96272615 69.31546505 -146.78710938 62.85449219 C-145.8506544 61.8733516 -144.91957769 60.88704753 -143.99414062 59.89550781 C-131.93552192 46.99499683 -117.63192326 36.23559938 -102.375 27.375 C-101.5794873 26.9123877 -100.78397461 26.44977539 -99.96435547 25.97314453 C-79.6838746 14.37836914 -57.49023372 6.14261949 -34.375 2.375 C-32.80661377 2.11444824 -32.80661377 2.11444824 -31.20654297 1.84863281 C-20.78191608 0.27800956 -10.52580848 -0.02357027 0 0 Z M-95.375 75.375 C-96.2721875 76.04789063 -97.169375 76.72078125 -98.09375 77.4140625 C-130.99905663 103.25440624 -152.55574201 140.7703906 -158.06640625 182.28515625 C-162.98344407 223.23200221 -153.01700855 265.40549075 -127.75390625 298.4296875 C-124.75614363 302.14120313 -121.64903063 305.71494003 -118.39453125 309.203125 C-116.62415862 311.10704605 -114.96114232 313.05391151 -113.3125 315.0625 C-91.97827431 339.90450943 -58.79045393 354.23249698 -27.375 360.375 C-26.14007813 360.62121094 -24.90515625 360.86742187 -23.6328125 361.12109375 C15.6917262 367.58601224 57.76318036 357.44494559 90.57177734 335.04589844 C127.89139548 308.06048823 151.20388202 269.6921526 158.625 224.375 C164.64725112 185.33007389 154.01848332 143.58074486 131.27246094 111.46533203 C123.23175801 100.53580513 114.26359425 89.84140539 103.625 81.375 C103.08133789 80.94074707 102.53767578 80.50649414 101.97753906 80.05908203 C92.37892661 72.45488747 82.52242522 65.96039803 71.625 60.375 C70.54863281 59.82199219 69.47226562 59.26898438 68.36328125 58.69921875 C15.48040223 33.02083207 -48.65963436 40.33847577 -95.375 75.375 Z " fill="#000000" transform="translate(202.375,-0.375)"/>
</svg>
